<svg xmlns="http://www.w3.org/2000/svg" xmlns:xlink="http://www.w3.org/1999/xlink" width="2240" zoomAndPan="magnify" viewBox="0 0 1680 944.999993" height="1260" preserveAspectRatio="xMidYMid meet" version="1.0"><defs><clipPath id="2bd9da0386"><path d="M 982.808594 0 L 1585.808594 0 L 1585.808594 303.484375 L 982.808594 303.484375 Z M 982.808594 0 " clip-rule="nonzero"/></clipPath><clipPath id="f507fb38a3"><path d="M 0 663.167969 L 512.546875 663.167969 L 512.546875 945 L 0 945 Z M 0 663.167969 " clip-rule="nonzero"/></clipPath><clipPath id="6b1ef2eeec"><path d="M 983.558594 304 L 1074 304 L 1074 394.671875 L 983.558594 394.671875 Z M 983.558594 304 " clip-rule="nonzero"/></clipPath><clipPath id="6426d2cf61"><path d="M 982.808594 349.085938 C 982.808594 374.441406 1003.367188 394.996094 1028.722656 394.996094 C 1054.078125 394.996094 1074.632812 374.441406 1074.632812 349.085938 C 1074.632812 323.726562 1054.078125 303.171875 1028.722656 303.171875 C 1003.367188 303.171875 982.808594 323.726562 982.808594 349.085938 Z M 982.808594 349.085938 " clip-rule="nonzero"/></clipPath><clipPath id="a1d2d8a4d8"><path d="M 1028.722656 304.074219 C 1053.582031 304.074219 1073.734375 324.226562 1073.734375 349.085938 C 1073.734375 373.945312 1053.582031 394.097656 1028.722656 394.097656 C 1003.863281 394.097656 983.710938 373.945312 983.710938 349.085938 C 983.710938 324.226562 1003.863281 304.074219 1028.722656 304.074219 Z M 1028.722656 304.074219 " clip-rule="nonzero"/></clipPath><clipPath id="8e8b96bbce"><path d="M 982.808594 303.171875 L 1074.308594 303.171875 L 1074.308594 394.671875 L 982.808594 394.671875 Z M 982.808594 303.171875 " clip-rule="nonzero"/></clipPath><clipPath id="01c59a2064"><path d="M 982.808594 349.085938 C 982.808594 374.441406 1003.367188 394.996094 1028.722656 394.996094 C 1054.078125 394.996094 1074.632812 374.441406 1074.632812 349.085938 C 1074.632812 323.726562 1054.078125 303.171875 1028.722656 303.171875 C 1003.367188 303.171875 982.808594 323.726562 982.808594 349.085938 Z M 982.808594 349.085938 " clip-rule="nonzero"/></clipPath><clipPath id="37acd50d09"><path d="M 982.808594 349.082031 C 982.808594 374.433594 1003.363281 394.988281 1028.71875 394.988281 C 1054.074219 394.988281 1074.625 374.433594 1074.625 349.082031 C 1074.625 323.726562 1054.074219 303.171875 1028.71875 303.171875 C 1003.363281 303.171875 982.808594 323.726562 982.808594 349.082031 Z M 982.808594 349.082031 " clip-rule="nonzero"/></clipPath></defs><g clip-path="url(#2bd9da0386)"><path fill="#3f4a84" d="M 1284.152344 -299.515625 C 1117.660156 -299.515625 982.808594 -164.667969 982.808594 1.824219 C 982.808594 168.316406 1117.660156 303.167969 1284.152344 303.167969 C 1450.644531 303.167969 1585.492188 168.316406 1585.492188 1.824219 C 1585.492188 -164.667969 1450.644531 -299.515625 1284.152344 -299.515625 Z M 1284.152344 242.898438 C 1150.957031 242.898438 1043.078125 135.019531 1043.078125 1.824219 C 1043.078125 -131.367188 1150.957031 -239.25 1284.152344 -239.25 C 1417.34375 -239.25 1525.226562 -131.367188 1525.226562 1.824219 C 1525.226562 135.019531 1417.34375 242.898438 1284.152344 242.898438 Z M 1284.152344 242.898438 " fill-opacity="1" fill-rule="nonzero"/></g><g clip-path="url(#f507fb38a3)"><path fill="#3f4a84" d="M 95.625 1003.589844 C 115.914062 1003.589844 136.207031 1012.609375 149.734375 1026.136719 C 163.257812 1039.660156 172.277344 1059.953125 172.277344 1082.496094 C 172.277344 1102.785156 163.257812 1123.078125 149.734375 1136.601562 C 136.207031 1150.128906 115.914062 1159.148438 95.625 1159.148438 C 73.082031 1159.148438 52.789062 1150.128906 39.265625 1136.601562 C 25.738281 1123.078125 16.71875 1102.785156 16.71875 1082.496094 C 16.71875 1059.953125 25.738281 1039.660156 39.265625 1026.136719 C 52.789062 1012.609375 73.082031 1003.589844 95.625 1003.589844 Z M 95.625 663.167969 C 210.601562 663.167969 314.308594 710.511719 390.960938 784.910156 C 465.355469 861.558594 512.699219 965.265625 512.699219 1082.496094 C 512.699219 1197.472656 465.355469 1301.179688 390.960938 1377.828125 C 314.308594 1452.226562 210.601562 1499.570312 95.625 1499.570312 C -21.605469 1499.570312 -125.3125 1452.226562 -201.960938 1377.828125 C -276.359375 1301.179688 -323.703125 1197.472656 -323.703125 1082.496094 C -323.703125 965.265625 -276.359375 861.558594 -201.960938 784.910156 C -125.3125 710.511719 -21.605469 663.167969 95.625 663.167969 Z M 375.179688 800.691406 C 303.035156 728.546875 203.839844 683.457031 95.625 683.457031 C -14.84375 683.457031 -114.039062 728.546875 -186.179688 800.691406 C -258.324219 872.832031 -303.414062 972.027344 -303.414062 1082.496094 C -303.414062 1190.710938 -258.324219 1289.90625 -186.179688 1362.046875 C -114.039062 1434.191406 -14.84375 1479.28125 95.625 1479.28125 C 203.839844 1479.28125 303.035156 1434.191406 375.179688 1362.046875 C 447.320312 1289.90625 492.410156 1190.710938 492.410156 1082.496094 C 492.410156 972.027344 447.320312 872.832031 375.179688 800.691406 Z M 95.625 739.820312 C 188.058594 739.820312 273.726562 778.144531 336.851562 839.015625 C 397.722656 902.140625 436.046875 987.808594 436.046875 1082.496094 C 436.046875 1174.929688 397.722656 1260.597656 336.851562 1323.722656 C 273.726562 1384.59375 188.058594 1422.917969 95.625 1422.917969 C 0.9375 1422.917969 -84.730469 1384.59375 -147.855469 1323.722656 C -208.726562 1260.597656 -247.050781 1174.929688 -247.050781 1082.496094 C -247.050781 987.808594 -208.726562 902.140625 -147.855469 839.015625 C -84.730469 778.144531 0.9375 739.820312 95.625 739.820312 Z M 321.070312 854.796875 C 264.710938 796.179688 183.550781 760.109375 95.625 760.109375 C 5.449219 760.109375 -75.714844 796.179688 -132.074219 854.796875 C -190.691406 911.15625 -226.761719 992.320312 -226.761719 1082.496094 C -226.761719 1170.421875 -190.691406 1251.582031 -132.074219 1307.941406 C -75.714844 1366.558594 5.449219 1402.628906 95.625 1402.628906 C 183.550781 1402.628906 264.710938 1366.558594 321.070312 1307.941406 C 379.6875 1251.582031 415.757812 1170.421875 415.757812 1082.496094 C 415.757812 992.320312 379.6875 911.15625 321.070312 854.796875 Z M 95.625 818.726562 C 167.769531 818.726562 233.148438 848.035156 280.492188 895.375 C 327.835938 942.71875 357.140625 1008.097656 357.140625 1082.496094 C 357.140625 1154.640625 327.835938 1220.019531 280.492188 1267.363281 C 233.148438 1314.707031 167.769531 1344.011719 95.625 1344.011719 C 21.230469 1344.011719 -44.152344 1314.707031 -91.492188 1267.363281 C -138.835938 1220.019531 -168.144531 1154.640625 -168.144531 1082.496094 C -168.144531 1008.097656 -138.835938 942.71875 -91.492188 895.375 C -44.152344 848.035156 21.230469 818.726562 95.625 818.726562 Z M 266.964844 908.902344 C 221.875 866.070312 161.003906 839.015625 95.625 839.015625 C 27.992188 839.015625 -32.878906 866.070312 -77.96875 908.902344 C -120.800781 953.992188 -147.855469 1014.863281 -147.855469 1082.496094 C -147.855469 1147.875 -120.800781 1208.746094 -77.96875 1253.835938 C -32.878906 1296.667969 27.992188 1323.722656 95.625 1323.722656 C 161.003906 1323.722656 221.875 1296.667969 266.964844 1253.835938 C 309.796875 1208.746094 336.851562 1147.875 336.851562 1082.496094 C 336.851562 1014.863281 309.796875 953.992188 266.964844 908.902344 Z M 95.625 906.648438 C 142.96875 906.648438 185.804688 924.683594 219.621094 958.5 C 251.183594 990.0625 269.21875 1032.898438 269.21875 1082.496094 C 269.21875 1129.839844 251.183594 1172.675781 219.621094 1206.492188 C 185.804688 1238.054688 142.96875 1256.089844 95.625 1256.089844 C 46.027344 1256.089844 3.191406 1238.054688 -28.371094 1206.492188 C -62.1875 1172.675781 -80.222656 1129.839844 -80.222656 1082.496094 C -80.222656 1032.898438 -62.1875 990.0625 -28.371094 958.5 C 3.191406 924.683594 46.027344 906.648438 95.625 906.648438 Z M 203.839844 972.027344 C 176.785156 942.71875 138.460938 926.9375 95.625 926.9375 C 52.789062 926.9375 12.210938 942.71875 -14.84375 972.027344 C -44.152344 999.082031 -59.933594 1039.660156 -59.933594 1082.496094 C -59.933594 1125.332031 -44.152344 1163.65625 -14.84375 1190.710938 C 12.210938 1220.019531 52.789062 1235.800781 95.625 1235.800781 C 138.460938 1235.800781 176.785156 1220.019531 203.839844 1190.710938 C 233.148438 1163.65625 248.929688 1125.332031 248.929688 1082.496094 C 248.929688 1039.660156 233.148438 999.082031 203.839844 972.027344 Z M 136.207031 1041.917969 C 124.933594 1030.644531 111.40625 1023.878906 95.625 1023.878906 C 79.84375 1023.878906 64.0625 1030.644531 55.046875 1041.917969 C 43.773438 1050.933594 37.011719 1066.714844 37.011719 1082.496094 C 37.011719 1098.277344 43.773438 1111.804688 55.046875 1123.078125 C 64.0625 1132.09375 79.84375 1138.859375 95.625 1138.859375 C 111.40625 1138.859375 124.933594 1132.09375 136.207031 1123.078125 C 145.222656 1111.804688 151.988281 1098.277344 151.988281 1082.496094 C 151.988281 1066.714844 145.222656 1050.933594 136.207031 1041.917969 Z M 136.207031 1041.917969 " fill-opacity="1" fill-rule="nonzero"/></g><g clip-path="url(#6b1ef2eeec)"><g clip-path="url(#6426d2cf61)"><g clip-path="url(#a1d2d8a4d8)"><path fill="#3f4a84" d="M 1028.71875 303.171875 C 1003.355469 303.171875 982.808594 323.714844 982.808594 349.082031 C 982.808594 374.445312 1003.355469 394.988281 1028.71875 394.988281 C 1054.082031 394.988281 1074.625 374.445312 1074.625 349.082031 C 1074.625 323.714844 1054.082031 303.171875 1028.71875 303.171875 Z M 1028.71875 385.808594 C 1008.425781 385.808594 991.992188 369.371094 991.992188 349.082031 C 991.992188 328.789062 1008.425781 312.355469 1028.71875 312.355469 C 1049.007812 312.355469 1065.445312 328.789062 1065.445312 349.082031 C 1065.445312 369.371094 1049.007812 385.808594 1028.71875 385.808594 Z M 1028.71875 385.808594 " fill-opacity="1" fill-rule="nonzero"/></g></g></g><g clip-path="url(#8e8b96bbce)"><g clip-path="url(#01c59a2064)"><g clip-path="url(#37acd50d09)"><path stroke-linecap="butt" transform="matrix(0.75, 0, 0, 0.75, 982.810038, 303.172623)" fill="none" stroke-linejoin="miter" d="M -0.00192566 61.212548 C -0.00192566 95.014633 27.404326 122.420884 61.211619 122.420884 C 95.018912 122.420884 122.419955 95.014633 122.419955 61.212548 C 122.419955 27.405254 95.018912 -0.000996963 61.211619 -0.000996963 C 27.404326 -0.000996963 -0.00192566 27.405254 -0.00192566 61.212548 Z M -0.00192566 61.212548 " stroke="#3f4a84" stroke-width="58" stroke-opacity="1" stroke-miterlimit="4"/></g></g></g></svg>