<svg xmlns="http://www.w3.org/2000/svg" width="6912" height="3456" viewBox="0 0 5184 2592"><defs><clipPath id="f"><path d="M0 .8h1273.668V489H0Zm0 0"/></clipPath><clipPath id="g"><path d="M1273.59 753.805C1273.59 337.848 936.547.8 520.59.8 104.629.8-232.414 337.848-232.414 753.805h407.227c0-190.961 154.816-345.778 345.777-345.778s345.777 154.817 345.777 345.778Zm0 0"/></clipPath><clipPath id="e"><path d="M0 0h1274v489H0z"/></clipPath><clipPath id="k"><path d="M1.035 0H564v748.75H1.035Zm0 0"/></clipPath><clipPath id="l"><path d="M564-377.266c-310.98 0-562.965 251.98-562.965 562.961S253.02 748.66 564 748.66s562.96-251.984 562.96-562.965S874.98-377.265 564-377.265m0 838.813c-152.227 0-275.852-123.399-275.852-275.852 0-152.45 123.625-275.852 275.852-275.852 152.223 0 275.852 123.629 275.852 275.851 0 152.227-123.63 275.852-275.852 275.852m0 0"/></clipPath><clipPath id="j"><path d="M0 0h564v749H0z"/></clipPath><clipPath id="p"><path d="M.934.547H1411V382H.934Zm0 0"/></clipPath><clipPath id="q"><path d="M.934 484.223v1210.672h1210.671c267.004 0 483.524-216.52 483.524-483.524V.7H484.457C217.453.7.934 217.22.934 484.223m0 0"/></clipPath><clipPath id="o"><path d="M0 0h1411v382H0z"/></clipPath><clipPath id="u"><path d="M1 2.121h61V33H1Zm0 0"/></clipPath><clipPath id="v"><path d="M1 489h61v31.168H1Zm0 0"/></clipPath><clipPath id="w"><path d="M122 2.121h62V33h-62Zm0 0"/></clipPath><clipPath id="x"><path d="M122 489h62v31.168h-62Zm0 0"/></clipPath><clipPath id="y"><path d="M244 2.121h61V33h-61Zm0 0"/></clipPath><clipPath id="z"><path d="M244 489h61v31.168h-61Zm0 0"/></clipPath><clipPath id="A"><path d="M365 2.121h56V33h-56Zm0 0"/></clipPath><clipPath id="B"><path d="M365 123h56v31h-56Zm0 0"/></clipPath><clipPath id="C"><path d="M365 246h56v32h-56Zm0 0"/></clipPath><clipPath id="D"><path d="M365 368h56v31h-56Zm0 0"/></clipPath><clipPath id="E"><path d="M365 489h56v31.168h-56Zm0 0"/></clipPath><clipPath id="t"><path d="M0 0h421v522H0z"/></clipPath><clipPath id="H"><path d="M0 0h853.695v1641.797H0Zm0 0"/></clipPath><clipPath id="I"><path d="M-320.773 1641.867h-879.739L-25.984-925.96h879.738Zm0 0"/></clipPath><clipPath id="G"><path d="M0 0h854v1642H0z"/></clipPath><clipPath id="M"><path d="M.07.508h617.043v449.347H.07Zm0 0"/></clipPath><clipPath id="O"><path d="M.07 273H76v41H.07Zm0 0"/></clipPath><clipPath id="P"><path d="M.07 136H76v41H.07Zm0 0"/></clipPath><clipPath id="Q"><path d="M.07 1H76v41H.07Zm0 0"/></clipPath><clipPath id="R"><path d="M136 408h75v41.727h-75Zm0 0"/></clipPath><clipPath id="S"><path d="M271 408h75v41.727h-75Zm0 0"/></clipPath><clipPath id="T"><path d="M406 408h76v41.727h-76Zm0 0"/></clipPath><clipPath id="U"><path d="M541 408h76v41.727h-76Zm0 0"/></clipPath><clipPath id="N"><use href="#a"/></clipPath><clipPath id="L"><use href="#a"/></clipPath><clipPath id="X"><path d="M.637 0H1030v179H.637Zm0 0"/></clipPath><clipPath id="W"><path d="M0 0h1031v181H0z"/></clipPath><mask id="d"><g filter="url(#b)"><use fill-opacity=".4" href="#c"/></g></mask><mask id="i"><g filter="url(#b)"><use fill-opacity=".4" href="#c"/></g></mask><mask id="n"><g filter="url(#b)"><use fill-opacity=".4" href="#c"/></g></mask><mask id="s"><g filter="url(#b)"><use fill-opacity=".4" href="#c"/></g></mask><mask id="F"><g filter="url(#b)"><use fill-opacity=".4" href="#c"/></g></mask><mask id="K"><g filter="url(#b)"><use fill-opacity=".4" href="#c"/></g></mask><mask id="V"><g filter="url(#b)"><use fill-opacity=".4" href="#c"/></g></mask><linearGradient id="h" x1="113.058" x2="288.953" y1="-20.725" y2="283.933" gradientTransform="translate(-232.413 .802)scale(3.01201)" gradientUnits="userSpaceOnUse"><stop offset="0" stop-color="#071225"/><stop offset=".125" stop-color="#071225"/><stop offset=".156" stop-color="#071225"/><stop offset=".164" stop-color="#071326"/><stop offset=".172" stop-color="#071327"/><stop offset=".18" stop-color="#081328"/><stop offset=".188" stop-color="#081429"/><stop offset=".195" stop-color="#081429"/><stop offset=".203" stop-color="#08152a"/><stop offset=".211" stop-color="#08152b"/><stop offset=".219" stop-color="#08152c"/><stop offset=".227" stop-color="#08162d"/><stop offset=".234" stop-color="#09162e"/><stop offset=".242" stop-color="#09172f"/><stop offset=".25" stop-color="#09172f"/><stop offset=".258" stop-color="#091830"/><stop offset=".266" stop-color="#091831"/><stop offset=".273" stop-color="#091832"/><stop offset=".281" stop-color="#0a1933"/><stop offset=".289" stop-color="#0a1934"/><stop offset=".297" stop-color="#0a1a35"/><stop offset=".305" stop-color="#0a1a35"/><stop offset=".313" stop-color="#0a1b36"/><stop offset=".32" stop-color="#0a1b37"/><stop offset=".328" stop-color="#0b1b38"/><stop offset=".336" stop-color="#0b1c39"/><stop offset=".344" stop-color="#0b1c3a"/><stop offset=".352" stop-color="#0b1d3b"/><stop offset=".359" stop-color="#0b1d3b"/><stop offset=".367" stop-color="#0b1d3c"/><stop offset=".375" stop-color="#0c1e3d"/><stop offset=".383" stop-color="#0c1e3e"/><stop offset=".391" stop-color="#0c1f3f"/><stop offset=".398" stop-color="#0c1f40"/><stop offset=".399" stop-color="#0c2041"/><stop offset=".406" stop-color="#0c2041"/><stop offset=".414" stop-color="#0c2041"/><stop offset=".422" stop-color="#0c2042"/><stop offset=".43" stop-color="#0d2143"/><stop offset=".438" stop-color="#0d2144"/><stop offset=".445" stop-color="#0d2245"/><stop offset=".453" stop-color="#0d2246"/><stop offset=".461" stop-color="#0d2247"/><stop offset=".469" stop-color="#0d2347"/><stop offset=".477" stop-color="#0e2348"/><stop offset=".484" stop-color="#0e2449"/><stop offset=".492" stop-color="#0e244a"/><stop offset=".5" stop-color="#0e254b"/><stop offset=".508" stop-color="#0e254c"/><stop offset=".516" stop-color="#0e254d"/><stop offset=".523" stop-color="#0f264d"/><stop offset=".531" stop-color="#0f264e"/><stop offset=".539" stop-color="#0f274f"/><stop offset=".547" stop-color="#0f2750"/><stop offset=".555" stop-color="#0f2851"/><stop offset=".563" stop-color="#0f2852"/><stop offset=".57" stop-color="#0f2853"/><stop offset=".578" stop-color="#102953"/><stop offset=".586" stop-color="#102954"/><stop offset=".594" stop-color="#102a55"/><stop offset=".601" stop-color="#102a56"/><stop offset=".602" stop-color="#102a56"/><stop offset=".609" stop-color="#102a57"/><stop offset=".617" stop-color="#102b58"/><stop offset=".625" stop-color="#112b58"/><stop offset=".633" stop-color="#112c59"/><stop offset=".641" stop-color="#112c5a"/><stop offset=".648" stop-color="#112d5b"/><stop offset=".656" stop-color="#112d5c"/><stop offset=".664" stop-color="#112d5d"/><stop offset=".672" stop-color="#122e5e"/><stop offset=".68" stop-color="#122e5e"/><stop offset=".688" stop-color="#122f5f"/><stop offset=".691" stop-color="#133060"/><stop offset=".695" stop-color="#143060"/><stop offset=".699" stop-color="#16315f"/><stop offset=".703" stop-color="#17325f"/><stop offset=".707" stop-color="#19335f"/><stop offset=".711" stop-color="#1a345e"/><stop offset=".715" stop-color="#1b345e"/><stop offset=".719" stop-color="#1d355e"/><stop offset=".723" stop-color="#1e365e"/><stop offset=".727" stop-color="#20375d"/><stop offset=".73" stop-color="#21385d"/><stop offset=".734" stop-color="#23395d"/><stop offset=".738" stop-color="#243a5c"/><stop offset=".742" stop-color="#263a5c"/><stop offset=".746" stop-color="#273b5c"/><stop offset=".75" stop-color="#293c5c"/><stop offset=".754" stop-color="#2a3d5b"/><stop offset=".758" stop-color="#2c3e5b"/><stop offset=".762" stop-color="#2d3f5b"/><stop offset=".766" stop-color="#2f405b"/><stop offset=".77" stop-color="#30405a"/><stop offset=".773" stop-color="#32415a"/><stop offset=".777" stop-color="#33425a"/><stop offset=".781" stop-color="#344359"/><stop offset=".785" stop-color="#364459"/><stop offset=".789" stop-color="#374559"/><stop offset=".793" stop-color="#394659"/><stop offset=".797" stop-color="#3a4658"/><stop offset=".801" stop-color="#3c4758"/><stop offset=".805" stop-color="#3d4858"/><stop offset=".809" stop-color="#3f4957"/><stop offset=".813" stop-color="#404a57"/><stop offset=".816" stop-color="#424b57"/><stop offset=".82" stop-color="#434c57"/><stop offset=".824" stop-color="#454c56"/><stop offset=".828" stop-color="#464d56"/><stop offset=".832" stop-color="#484e56"/><stop offset=".836" stop-color="#494f55"/><stop offset=".84" stop-color="#4b5055"/><stop offset=".844" stop-color="#4c5155"/><stop offset=".848" stop-color="#4d5255"/><stop offset=".852" stop-color="#4f5254"/><stop offset=".855" stop-color="#505354"/><stop offset=".859" stop-color="#525454"/><stop offset=".863" stop-color="#535553"/><stop offset=".867" stop-color="#555653"/><stop offset=".871" stop-color="#565753"/><stop offset=".875" stop-color="#585853"/><stop offset=".879" stop-color="#595852"/><stop offset=".883" stop-color="#5b5952"/><stop offset=".887" stop-color="#5c5a52"/><stop offset=".891" stop-color="#5e5b51"/><stop offset=".895" stop-color="#5f5c51"/><stop offset=".898" stop-color="#615d51"/><stop offset=".902" stop-color="#625e51"/><stop offset=".906" stop-color="#645e50"/><stop offset=".91" stop-color="#655f50"/><stop offset=".914" stop-color="#666050"/><stop offset=".918" stop-color="#686150"/><stop offset=".922" stop-color="#69624f"/><stop offset=".926" stop-color="#6b634f"/><stop offset=".93" stop-color="#6c634f"/><stop offset=".934" stop-color="#6e644e"/><stop offset=".938" stop-color="#6f654e"/><stop offset=".941" stop-color="#71664e"/><stop offset=".945" stop-color="#72674e"/><stop offset=".949" stop-color="#74684d"/><stop offset=".953" stop-color="#75694d"/><stop offset=".957" stop-color="#77694d"/><stop offset=".961" stop-color="#786a4c"/><stop offset=".965" stop-color="#7a6b4c"/><stop offset=".969" stop-color="#7b6c4c"/><stop offset=".973" stop-color="#7d6d4c"/><stop offset=".977" stop-color="#7e6e4b"/><stop offset=".98" stop-color="#806f4b"/><stop offset=".984" stop-color="#816f4b"/><stop offset=".988" stop-color="#82704a"/><stop offset=".992" stop-color="#84714a"/><stop offset=".996" stop-color="#85724a"/><stop offset="1" stop-color="#87734a"/></linearGradient><linearGradient id="m" x1="79.247" x2="285.708" y1="545.753" y2="188.152" gradientTransform="translate(1.036 -377.266)scale(2.25185)" gradientUnits="userSpaceOnUse"><stop offset="0" stop-color="#ffaba7"/><stop offset=".125" stop-color="#ffaba7"/><stop offset=".188" stop-color="#ffaba7"/><stop offset=".219" stop-color="#ffaba7"/><stop offset=".223" stop-color="#835f66"/><stop offset=".227" stop-color="#071225"/><stop offset=".234" stop-color="#071226"/><stop offset=".242" stop-color="#071327"/><stop offset=".25" stop-color="#071327"/><stop offset=".258" stop-color="#081328"/><stop offset=".266" stop-color="#081429"/><stop offset=".273" stop-color="#081429"/><stop offset=".281" stop-color="#08152a"/><stop offset=".289" stop-color="#08152b"/><stop offset=".297" stop-color="#08152c"/><stop offset=".303" stop-color="#08162c"/><stop offset=".305" stop-color="#08162d"/><stop offset=".313" stop-color="#09162d"/><stop offset=".32" stop-color="#09162e"/><stop offset=".328" stop-color="#09172f"/><stop offset=".336" stop-color="#09172f"/><stop offset=".344" stop-color="#091730"/><stop offset=".352" stop-color="#091831"/><stop offset=".359" stop-color="#091831"/><stop offset=".367" stop-color="#091832"/><stop offset=".375" stop-color="#0a1933"/><stop offset=".383" stop-color="#0a1934"/><stop offset=".391" stop-color="#0a1a34"/><stop offset=".398" stop-color="#0a1a35"/><stop offset=".406" stop-color="#0a1a36"/><stop offset=".414" stop-color="#0a1b37"/><stop offset=".422" stop-color="#0a1b37"/><stop offset=".43" stop-color="#0b1b38"/><stop offset=".438" stop-color="#0b1c39"/><stop offset=".445" stop-color="#0b1c39"/><stop offset=".453" stop-color="#0b1c3a"/><stop offset=".461" stop-color="#0b1d3b"/><stop offset=".469" stop-color="#0b1d3c"/><stop offset=".477" stop-color="#0b1d3c"/><stop offset=".484" stop-color="#0c1e3d"/><stop offset=".492" stop-color="#0c1e3e"/><stop offset=".5" stop-color="#0c1f3f"/><stop offset=".508" stop-color="#0c1f3f"/><stop offset=".516" stop-color="#0c1f40"/><stop offset=".523" stop-color="#0c2041"/><stop offset=".531" stop-color="#0c2041"/><stop offset=".539" stop-color="#0c2042"/><stop offset=".547" stop-color="#0d2143"/><stop offset=".555" stop-color="#0d2144"/><stop offset=".563" stop-color="#0d2144"/><stop offset=".57" stop-color="#0d2245"/><stop offset=".578" stop-color="#0d2246"/><stop offset=".586" stop-color="#0d2347"/><stop offset=".594" stop-color="#0d2347"/><stop offset=".602" stop-color="#0e2348"/><stop offset=".609" stop-color="#0e2449"/><stop offset=".617" stop-color="#0e2449"/><stop offset=".625" stop-color="#0e244a"/><stop offset=".633" stop-color="#0e254b"/><stop offset=".641" stop-color="#0e254c"/><stop offset=".648" stop-color="#0e254c"/><stop offset=".656" stop-color="#0e264d"/><stop offset=".664" stop-color="#0f264e"/><stop offset=".672" stop-color="#0f264f"/><stop offset=".68" stop-color="#0f274f"/><stop offset=".688" stop-color="#0f2750"/><stop offset=".695" stop-color="#0f2851"/><stop offset=".697" stop-color="#0f2852"/><stop offset=".703" stop-color="#0f2852"/><stop offset=".711" stop-color="#0f2852"/><stop offset=".719" stop-color="#102953"/><stop offset=".727" stop-color="#102954"/><stop offset=".734" stop-color="#102954"/><stop offset=".742" stop-color="#102a55"/><stop offset=".75" stop-color="#102a56"/><stop offset=".758" stop-color="#102a57"/><stop offset=".766" stop-color="#102b57"/><stop offset=".773" stop-color="#112b58"/><stop offset=".781" stop-color="#112b59"/><stop offset=".789" stop-color="#112c5a"/><stop offset=".797" stop-color="#112c5a"/><stop offset=".805" stop-color="#112d5b"/><stop offset=".813" stop-color="#112d5c"/><stop offset=".82" stop-color="#112d5c"/><stop offset=".828" stop-color="#112e5d"/><stop offset=".836" stop-color="#122e5e"/><stop offset=".844" stop-color="#122e5f"/><stop offset=".852" stop-color="#122f5f"/><stop offset=".855" stop-color="#132f60"/><stop offset=".859" stop-color="#143060"/><stop offset=".863" stop-color="#15315f"/><stop offset=".867" stop-color="#16315f"/><stop offset=".871" stop-color="#18325f"/><stop offset=".875" stop-color="#19335f"/><stop offset=".879" stop-color="#1a345e"/><stop offset=".883" stop-color="#1c355e"/><stop offset=".887" stop-color="#1d355e"/><stop offset=".891" stop-color="#1e365e"/><stop offset=".895" stop-color="#20375d"/><stop offset=".898" stop-color="#21385d"/><stop offset=".902" stop-color="#22385d"/><stop offset=".906" stop-color="#24395d"/><stop offset=".91" stop-color="#253a5c"/><stop offset=".914" stop-color="#263b5c"/><stop offset=".918" stop-color="#283c5c"/><stop offset=".922" stop-color="#293c5c"/><stop offset=".926" stop-color="#2a3d5b"/><stop offset=".93" stop-color="#2c3e5b"/><stop offset=".934" stop-color="#2d3f5b"/><stop offset=".938" stop-color="#2e3f5b"/><stop offset=".941" stop-color="#30405a"/><stop offset=".945" stop-color="#31415a"/><stop offset=".949" stop-color="#32425a"/><stop offset=".953" stop-color="#34435a"/><stop offset=".957" stop-color="#354359"/><stop offset=".961" stop-color="#364459"/><stop offset=".965" stop-color="#384559"/><stop offset=".969" stop-color="#394659"/><stop offset=".973" stop-color="#3a4658"/><stop offset=".977" stop-color="#3c4758"/><stop offset=".98" stop-color="#3d4858"/><stop offset=".984" stop-color="#3e4957"/><stop offset=".988" stop-color="#404a57"/><stop offset=".992" stop-color="#414a57"/><stop offset=".996" stop-color="#424b57"/><stop offset="1" stop-color="#444c56"/></linearGradient><linearGradient id="r" x1="235.661" x2="500" y1="264.338" y2="0" gradientTransform="rotate(-90 847.914 846.98)scale(3.38839)" gradientUnits="userSpaceOnUse"><stop offset="0" stop-color="#112d5c"/><stop offset=".008" stop-color="#112d5c"/><stop offset=".016" stop-color="#112d5d"/><stop offset=".023" stop-color="#122e5e"/><stop offset=".031" stop-color="#122e5e"/><stop offset=".039" stop-color="#122e5f"/><stop offset=".047" stop-color="#122f5f"/><stop offset=".063" stop-color="#122f5f"/><stop offset=".07" stop-color="#122e5f"/><stop offset=".078" stop-color="#122e5e"/><stop offset=".086" stop-color="#122e5e"/><stop offset=".094" stop-color="#112e5d"/><stop offset=".102" stop-color="#112d5d"/><stop offset=".109" stop-color="#112d5c"/><stop offset=".117" stop-color="#112d5b"/><stop offset=".125" stop-color="#112c5b"/><stop offset=".133" stop-color="#112c5a"/><stop offset=".141" stop-color="#112c5a"/><stop offset=".148" stop-color="#112c59"/><stop offset=".156" stop-color="#112b59"/><stop offset=".164" stop-color="#112b58"/><stop offset=".172" stop-color="#102b57"/><stop offset=".18" stop-color="#102a57"/><stop offset=".188" stop-color="#102a56"/><stop offset=".195" stop-color="#102a56"/><stop offset=".203" stop-color="#102a55"/><stop offset=".211" stop-color="#102954"/><stop offset=".213" stop-color="#102954"/><stop offset=".219" stop-color="#102954"/><stop offset=".227" stop-color="#102953"/><stop offset=".234" stop-color="#102853"/><stop offset=".242" stop-color="#0f2852"/><stop offset=".25" stop-color="#0f2852"/><stop offset=".258" stop-color="#0f2851"/><stop offset=".266" stop-color="#0f2750"/><stop offset=".273" stop-color="#0f2750"/><stop offset=".281" stop-color="#0f274f"/><stop offset=".289" stop-color="#0f264f"/><stop offset=".297" stop-color="#0f264e"/><stop offset=".305" stop-color="#0f264d"/><stop offset=".313" stop-color="#0e264d"/><stop offset=".32" stop-color="#0e254c"/><stop offset=".328" stop-color="#0e254c"/><stop offset=".336" stop-color="#0e254b"/><stop offset=".344" stop-color="#0e244b"/><stop offset=".352" stop-color="#0e244a"/><stop offset=".359" stop-color="#0e2449"/><stop offset=".367" stop-color="#0e2449"/><stop offset=".375" stop-color="#0e2348"/><stop offset=".383" stop-color="#0d2348"/><stop offset=".391" stop-color="#0d2347"/><stop offset=".398" stop-color="#0d2246"/><stop offset=".406" stop-color="#0d2246"/><stop offset=".414" stop-color="#0d2245"/><stop offset=".422" stop-color="#0d2245"/><stop offset=".43" stop-color="#0d2144"/><stop offset=".438" stop-color="#0d2144"/><stop offset=".445" stop-color="#0d2143"/><stop offset=".453" stop-color="#0c2042"/><stop offset=".461" stop-color="#0c2042"/><stop offset=".469" stop-color="#0c2041"/><stop offset=".477" stop-color="#0c2041"/><stop offset=".484" stop-color="#0c1f40"/><stop offset=".492" stop-color="#0c1f3f"/><stop offset=".5" stop-color="#0c1f3f"/><stop offset=".508" stop-color="#0c1e3e"/><stop offset=".516" stop-color="#0c1e3e"/><stop offset=".523" stop-color="#0c1e3d"/><stop offset=".531" stop-color="#0b1e3d"/><stop offset=".539" stop-color="#0b1d3c"/><stop offset=".547" stop-color="#0b1d3b"/><stop offset=".555" stop-color="#0b1d3b"/><stop offset=".563" stop-color="#0b1c3a"/><stop offset=".57" stop-color="#0b1c3a"/><stop offset=".578" stop-color="#0b1c39"/><stop offset=".586" stop-color="#0b1c38"/><stop offset=".594" stop-color="#0b1b38"/><stop offset=".602" stop-color="#0a1b37"/><stop offset=".609" stop-color="#0a1b37"/><stop offset=".617" stop-color="#0a1a36"/><stop offset=".625" stop-color="#0a1a36"/><stop offset=".633" stop-color="#0a1a35"/><stop offset=".641" stop-color="#0a1a34"/><stop offset=".648" stop-color="#0a1934"/><stop offset=".656" stop-color="#0a1933"/><stop offset=".664" stop-color="#0a1933"/><stop offset=".672" stop-color="#091832"/><stop offset=".68" stop-color="#091831"/><stop offset=".688" stop-color="#091831"/><stop offset=".695" stop-color="#091830"/><stop offset=".703" stop-color="#091730"/><stop offset=".711" stop-color="#09172f"/><stop offset=".719" stop-color="#09172f"/><stop offset=".727" stop-color="#09162e"/><stop offset=".734" stop-color="#09162d"/><stop offset=".742" stop-color="#08162d"/><stop offset=".75" stop-color="#08162c"/><stop offset=".758" stop-color="#08152c"/><stop offset=".766" stop-color="#08152b"/><stop offset=".773" stop-color="#08152a"/><stop offset=".781" stop-color="#08142a"/><stop offset=".787" stop-color="#081429"/><stop offset=".789" stop-color="#081429"/><stop offset=".797" stop-color="#081429"/><stop offset=".805" stop-color="#081428"/><stop offset=".813" stop-color="#071327"/><stop offset=".82" stop-color="#071327"/><stop offset=".828" stop-color="#071326"/><stop offset=".836" stop-color="#071226"/><stop offset=".844" stop-color="#071225"/><stop offset=".875" stop-color="#071225"/><stop offset="1" stop-color="#071225"/></linearGradient><linearGradient id="J" x1="100.193" x2="280.178" y1="422.871" y2="111.128" gradientTransform="translate(-1200.51 -925.962)scale(5.13566)" gradientUnits="userSpaceOnUse"><stop offset="0" stop-color="#071225"/><stop offset=".231" stop-color="#071225"/><stop offset=".25" stop-color="#071225"/><stop offset=".281" stop-color="#071225"/><stop offset=".289" stop-color="#071225"/><stop offset=".293" stop-color="#071226"/><stop offset=".297" stop-color="#071327"/><stop offset=".301" stop-color="#071327"/><stop offset=".305" stop-color="#081328"/><stop offset=".309" stop-color="#081428"/><stop offset=".313" stop-color="#081429"/><stop offset=".316" stop-color="#081429"/><stop offset=".32" stop-color="#08142a"/><stop offset=".324" stop-color="#08152a"/><stop offset=".328" stop-color="#08152b"/><stop offset=".332" stop-color="#08152c"/><stop offset=".336" stop-color="#08162c"/><stop offset=".34" stop-color="#08162d"/><stop offset=".344" stop-color="#09162d"/><stop offset=".348" stop-color="#09162e"/><stop offset=".352" stop-color="#09172e"/><stop offset=".355" stop-color="#09172f"/><stop offset=".359" stop-color="#091730"/><stop offset=".363" stop-color="#091730"/><stop offset=".367" stop-color="#091831"/><stop offset=".371" stop-color="#091831"/><stop offset=".375" stop-color="#091832"/><stop offset=".379" stop-color="#0a1932"/><stop offset=".383" stop-color="#0a1933"/><stop offset=".387" stop-color="#0a1934"/><stop offset=".391" stop-color="#0a1934"/><stop offset=".395" stop-color="#0a1a35"/><stop offset=".398" stop-color="#0a1a35"/><stop offset=".402" stop-color="#0a1a36"/><stop offset=".406" stop-color="#0a1b36"/><stop offset=".41" stop-color="#0a1b37"/><stop offset=".414" stop-color="#0a1b38"/><stop offset=".418" stop-color="#0b1b38"/><stop offset=".422" stop-color="#0b1c39"/><stop offset=".426" stop-color="#0b1c39"/><stop offset=".43" stop-color="#0b1c3a"/><stop offset=".434" stop-color="#0b1c3a"/><stop offset=".438" stop-color="#0b1d3b"/><stop offset=".441" stop-color="#0b1d3b"/><stop offset=".445" stop-color="#0b1d3c"/><stop offset=".449" stop-color="#0b1e3d"/><stop offset=".453" stop-color="#0c1e3d"/><stop offset=".457" stop-color="#0c1e3e"/><stop offset=".461" stop-color="#0c1e3e"/><stop offset=".465" stop-color="#0c1f3f"/><stop offset=".469" stop-color="#0c1f3f"/><stop offset=".473" stop-color="#0c1f40"/><stop offset=".477" stop-color="#0c2041"/><stop offset=".48" stop-color="#0c2041"/><stop offset=".484" stop-color="#0c2042"/><stop offset=".488" stop-color="#0c2042"/><stop offset=".492" stop-color="#0d2143"/><stop offset=".496" stop-color="#0d2143"/><stop offset=".5" stop-color="#0d2144"/><stop offset=".504" stop-color="#0d2245"/><stop offset=".508" stop-color="#0d2245"/><stop offset=".512" stop-color="#0d2246"/><stop offset=".516" stop-color="#0d2246"/><stop offset=".52" stop-color="#0d2347"/><stop offset=".523" stop-color="#0d2347"/><stop offset=".527" stop-color="#0e2348"/><stop offset=".531" stop-color="#0e2349"/><stop offset=".535" stop-color="#0e2449"/><stop offset=".539" stop-color="#0e244a"/><stop offset=".543" stop-color="#0e244a"/><stop offset=".547" stop-color="#0e254b"/><stop offset=".551" stop-color="#0e254b"/><stop offset=".555" stop-color="#0e254c"/><stop offset=".559" stop-color="#0e254c"/><stop offset=".563" stop-color="#0e264d"/><stop offset=".566" stop-color="#0f264e"/><stop offset=".57" stop-color="#0f264e"/><stop offset=".574" stop-color="#0f274f"/><stop offset=".578" stop-color="#0f274f"/><stop offset=".582" stop-color="#0f2750"/><stop offset=".586" stop-color="#0f2750"/><stop offset=".59" stop-color="#0f2851"/><stop offset=".594" stop-color="#0f2852"/><stop offset=".598" stop-color="#0f2852"/><stop offset=".602" stop-color="#102853"/><stop offset=".605" stop-color="#102953"/><stop offset=".609" stop-color="#102954"/><stop offset=".613" stop-color="#102954"/><stop offset=".617" stop-color="#102a55"/><stop offset=".621" stop-color="#102a56"/><stop offset=".625" stop-color="#102a56"/><stop offset=".629" stop-color="#102a57"/><stop offset=".633" stop-color="#102b57"/><stop offset=".637" stop-color="#102b58"/><stop offset=".641" stop-color="#112b58"/><stop offset=".645" stop-color="#112c59"/><stop offset=".648" stop-color="#112c5a"/><stop offset=".652" stop-color="#112c5a"/><stop offset=".656" stop-color="#112c5b"/><stop offset=".66" stop-color="#112d5b"/><stop offset=".664" stop-color="#112d5c"/><stop offset=".668" stop-color="#112d5c"/><stop offset=".672" stop-color="#112d5d"/><stop offset=".676" stop-color="#122e5d"/><stop offset=".68" stop-color="#122e5e"/><stop offset=".684" stop-color="#122e5f"/><stop offset=".688" stop-color="#122f5f"/><stop offset=".695" stop-color="#122f60"/><stop offset=".699" stop-color="#143060"/><stop offset=".703" stop-color="#15315f"/><stop offset=".707" stop-color="#16315f"/><stop offset=".711" stop-color="#17325f"/><stop offset=".715" stop-color="#18325f"/><stop offset=".719" stop-color="#19335f"/><stop offset=".723" stop-color="#1a345e"/><stop offset=".727" stop-color="#1b345e"/><stop offset=".73" stop-color="#1c355e"/><stop offset=".734" stop-color="#1d355e"/><stop offset=".738" stop-color="#1e365e"/><stop offset=".742" stop-color="#1f375d"/><stop offset=".746" stop-color="#20375d"/><stop offset=".75" stop-color="#21385d"/><stop offset=".754" stop-color="#22385d"/><stop offset=".758" stop-color="#23395d"/><stop offset=".762" stop-color="#243a5c"/><stop offset=".766" stop-color="#253a5c"/><stop offset=".77" stop-color="#263b5c"/><stop offset=".773" stop-color="#273b5c"/><stop offset=".777" stop-color="#283c5c"/><stop offset=".781" stop-color="#293d5c"/><stop offset=".785" stop-color="#2b3d5b"/><stop offset=".789" stop-color="#2c3e5b"/><stop offset=".793" stop-color="#2d3e5b"/><stop offset=".797" stop-color="#2e3f5b"/><stop offset=".801" stop-color="#2f405b"/><stop offset=".805" stop-color="#30405a"/><stop offset=".809" stop-color="#31415a"/><stop offset=".813" stop-color="#32415a"/><stop offset=".816" stop-color="#33425a"/><stop offset=".82" stop-color="#34435a"/><stop offset=".824" stop-color="#354359"/><stop offset=".828" stop-color="#364459"/><stop offset=".832" stop-color="#374459"/><stop offset=".836" stop-color="#384559"/><stop offset=".84" stop-color="#394659"/><stop offset=".844" stop-color="#3a4658"/><stop offset=".848" stop-color="#3b4758"/><stop offset=".852" stop-color="#3c4858"/><stop offset=".855" stop-color="#3d4858"/><stop offset=".859" stop-color="#3e4958"/><stop offset=".863" stop-color="#3f4957"/><stop offset=".867" stop-color="#404a57"/><stop offset=".871" stop-color="#414b57"/><stop offset=".875" stop-color="#424b57"/><stop offset=".879" stop-color="#434c57"/><stop offset=".883" stop-color="#454c56"/><stop offset=".887" stop-color="#464d56"/><stop offset=".891" stop-color="#474e56"/><stop offset=".895" stop-color="#484e56"/><stop offset=".898" stop-color="#494f56"/><stop offset=".902" stop-color="#4a4f55"/><stop offset=".906" stop-color="#4b5055"/><stop offset=".91" stop-color="#4c5155"/><stop offset=".914" stop-color="#4d5155"/><stop offset=".918" stop-color="#4e5255"/><stop offset=".922" stop-color="#4f5254"/><stop offset=".926" stop-color="#505354"/><stop offset=".93" stop-color="#515454"/><stop offset=".934" stop-color="#525454"/><stop offset=".938" stop-color="#535554"/><stop offset=".941" stop-color="#545553"/><stop offset=".945" stop-color="#555653"/><stop offset=".949" stop-color="#565753"/><stop offset=".953" stop-color="#575753"/><stop offset=".957" stop-color="#585853"/><stop offset=".961" stop-color="#595852"/><stop offset=".965" stop-color="#5a5952"/><stop offset=".969" stop-color="#5b5a52"/><stop offset=".973" stop-color="#5c5a52"/><stop offset=".977" stop-color="#5e5b52"/><stop offset=".98" stop-color="#5f5b51"/><stop offset=".984" stop-color="#605c51"/><stop offset=".988" stop-color="#615d51"/><stop offset=".992" stop-color="#625d51"/><stop offset=".996" stop-color="#635e51"/><stop offset="1" stop-color="#645e50"/></linearGradient><path id="a" d="M0 0h618v450H0z"/><path id="c" fill="#000" d="M-518.4-259.2h6220.8v3110.4H-518.4z"/><filter id="b" width="100%" height="100%" x="0%" y="0%"><feColorMatrix color-interpolation-filters="sRGB" values="0 0 0 0 1 0 0 0 0 1 0 0 0 0 1 0 0 0 1 0"/></filter></defs><g mask="url(#d)"><g clip-path="url(#e)" transform="translate(1 2102)"><g clip-path="url(#f)"><g clip-path="url(#g)"><path fill="url(#h)" d="M0 .8V489h1273.59V.8Zm0 0"/></g></g></g></g><g mask="url(#i)"><g clip-path="url(#j)" transform="translate(4619)"><g clip-path="url(#k)"><g clip-path="url(#l)"><path fill="url(#m)" d="M1.035 0v748.66H564V0Zm0 0"/></g></g></g></g><g mask="url(#n)"><g clip-path="url(#o)" transform="translate(3772 2209)"><g clip-path="url(#p)"><g clip-path="url(#q)"><path fill="url(#r)" d="M.934 382H1411V.7H.934Zm0 0"/></g></g></g></g><g mask="url(#s)"><g clip-path="url(#t)" transform="translate(4762 1896)"><g clip-path="url(#u)"><path fill="#ffaba7" d="m61.945 32.473-29.93-29.93L1.63 32.933Zm0 0"/></g><path fill="#ffaba7" d="M61.883 153.977 31.496 123.59l-30.39 30.387Zm0 123.125-30.387-30.387-30.39 30.387Zm0 121.531-30.387-30.387-30.39 30.387Zm0 0"/><g clip-path="url(#v)"><path fill="#ffaba7" d="m61.883 520.21-30.387-30.386-30.39 30.387Zm0 0"/></g><g clip-path="url(#w)"><path fill="#ffaba7" d="M183.5 32.473 153.11 2.082l-30.387 30.39Zm0 0"/></g><path fill="#ffaba7" d="m183.438 153.965-30.387-30.387-30.39 30.387Zm0 123.113-30.387-30.39-30.39 30.39Zm0 121.532-30.387-30.391-30.39 30.39Zm0 0"/><g clip-path="url(#x)"><path fill="#ffaba7" d="M183.438 520.188 153.05 489.8l-30.39 30.387Zm0 0"/></g><g clip-path="url(#y)"><path fill="#ffaba7" d="M304.98 32.473 274.594 2.082l-30.39 30.39Zm0 0"/></g><path fill="#ffaba7" d="m304.98 154.004-30.386-30.39-30.39 30.39Zm0 123.109-30.386-30.386-30.39 30.386Zm0 121.532-30.386-30.387-30.39 30.387Zm0 0"/><g clip-path="url(#z)"><path fill="#ffaba7" d="m304.98 520.227-30.386-30.391-30.39 30.39Zm0 0"/></g><g clip-path="url(#A)"><path fill="#ffaba7" d="M426.54 32.473 396.147 2.082l-30.386 30.39Zm0 0"/></g><g clip-path="url(#B)"><path fill="#ffaba7" d="m426.54 153.977-30.392-30.387-30.386 30.387Zm0 0"/></g><g clip-path="url(#C)"><path fill="#ffaba7" d="m426.54 277.102-30.392-30.387-30.386 30.387Zm0 0"/></g><g clip-path="url(#D)"><path fill="#ffaba7" d="m426.54 398.633-30.392-30.387-30.386 30.387Zm0 0"/></g><g clip-path="url(#E)"><path fill="#ffaba7" d="m426.54 520.21-30.392-30.386-30.386 30.387Zm0 0"/></g></g></g><g mask="url(#F)"><g clip-path="url(#G)" transform="translate(1)"><g clip-path="url(#H)"><g clip-path="url(#I)"><path fill="url(#J)" d="M0 0v1641.797h853.695V0Zm0 0"/></g></g></g></g><g mask="url(#K)"><g clip-path="url(#L)" transform="translate(130 29)"><g clip-path="url(#M)"><g clip-path="url(#N)"><path fill="#ffaba7" d="M74.336 414.367c-11.106 11.106-22.2 22.195-33.305 33.301-1.285 1.285-3.488 1.3-4.785 0-11.27-11.266-22.55-22.547-33.816-33.813-2.055-2.058-.555-5.789 2.394-5.777 22.371.176 44.742.352 67.117.516 4.356.023 4.356 6.789 0 6.761-22.375-.175-44.746-.351-67.117-.515.797-1.918 1.594-3.856 2.395-5.774 11.265 11.266 22.547 22.547 33.812 33.817h-4.785c11.102-11.106 22.195-22.2 33.3-33.305 3.083-3.07 7.872 1.707 4.79 4.79m0 0"/><g clip-path="url(#O)"><path fill="#ffaba7" d="m74.266 279.16-33.817 33.817c-1.281 1.285-3.488 1.296-4.785 0L1.848 279.16c-2.07-2.07-.543-5.777 2.394-5.777h67.63c4.355 0 4.355 6.765 0 6.765H4.241c.797-1.921 1.594-3.855 2.395-5.777 11.265 11.27 22.547 22.55 33.812 33.817h-4.785c11.266-11.266 22.547-22.547 33.813-33.817 3.085-3.082 7.859 1.703 4.789 4.79m0 0"/></g><g clip-path="url(#P)"><path fill="#ffaba7" d="M74.266 142.152C63 153.422 51.719 164.703 40.449 175.97c-1.281 1.285-3.488 1.297-4.785 0a134769 134769 0 0 1-33.816-33.817c-2.07-2.066-.543-5.773 2.394-5.773h67.63c4.355 0 4.355 6.762 0 6.762H4.241c.797-1.922 1.594-3.856 2.395-5.774l33.812 33.813h-4.785l33.813-33.813c3.085-3.074 7.859 1.703 4.789 4.785m0 0"/></g><g clip-path="url(#Q)"><path fill="#ffaba7" d="M74.266 6.918a134769 134769 0 0 1-33.817 33.816c-1.281 1.286-3.488 1.297-4.785 0C24.394 29.47 13.114 18.188 1.848 6.918c-2.07-2.07-.543-5.773 2.394-5.773h67.63c4.355 0 4.355 6.761 0 6.761H4.241C5.04 5.984 5.836 4.051 6.637 2.13 17.902 13.4 29.184 24.68 40.449 35.946h-4.785A275725 275725 0 0 0 69.477 2.13c3.085-3.07 7.859 1.707 4.789 4.789m0 0"/></g><g clip-path="url(#R)"><path fill="#ffaba7" d="M209.598 414.367c-11.27 11.27-22.551 22.547-33.817 33.817-1.285 1.285-3.492 1.296-4.789 0-11.265-11.27-22.547-22.547-33.816-33.817-2.07-2.07-.54-5.773 2.394-5.773h67.633c4.356 0 4.356 6.761 0 6.761H139.57l2.395-5.777c11.265 11.27 22.547 22.55 33.816 33.817h-4.789l33.817-33.817c3.097-3.07 7.87 1.707 4.789 4.79m0 0"/></g><path fill="#ffaba7" d="M209.527 279.172c-11.265 11.27-22.547 22.55-33.816 33.816-1.281 1.285-3.488 1.301-4.785 0a134769 134769 0 0 1-33.817-33.816c-2.07-2.067-.543-5.774 2.395-5.774h67.629c4.355 0 4.355 6.762 0 6.762h-67.63c.798-1.918 1.595-3.855 2.395-5.773l33.813 33.812h-4.785l33.812-33.812c3.086-3.07 7.875 1.703 4.79 4.785m-.001-137.004-33.816 33.816c-1.281 1.282-3.488 1.297-4.785 0l-33.817-33.816c-2.07-2.07-.543-5.777 2.395-5.777h67.629c4.355 0 4.355 6.765 0 6.765h-67.63c.798-1.922 1.595-3.855 2.395-5.777 11.266 11.266 22.547 22.547 33.813 33.816h-4.785c11.265-11.27 22.547-22.55 33.812-33.816 3.086-3.07 7.875 1.703 4.79 4.789m-.001-135.223c-11.265 11.27-22.547 22.547-33.816 33.817-1.281 1.285-3.488 1.297-4.785 0-11.27-11.27-22.551-22.547-33.817-33.817-2.07-2.07-.543-5.773 2.395-5.773h67.629c4.355 0 4.355 6.762 0 6.762h-67.63c.798-1.922 1.595-3.856 2.395-5.778 11.266 11.27 22.547 22.551 33.813 33.817h-4.785c11.265-11.266 22.547-22.547 33.812-33.817 3.086-3.082 7.875 1.707 4.79 4.79m0 0"/><g clip-path="url(#S)"><path fill="#ffaba7" d="M344.777 414.367c-11.27 11.27-22.55 22.547-33.816 33.817-1.285 1.285-3.488 1.296-4.79 0-11.265-11.27-22.546-22.547-33.816-33.817-2.066-2.07-.539-5.773 2.395-5.773h67.633c4.355 0 4.355 6.761 0 6.761H274.75c.8-1.921 1.598-3.855 2.395-5.777l33.816 33.817h-4.79c11.27-11.266 22.552-22.547 33.817-33.817 3.082-3.07 7.871 1.707 4.79 4.79m0 0"/></g><path fill="#ffaba7" d="M344.777 279.133c-11.27 11.265-22.55 22.547-33.816 33.816-1.285 1.285-3.488 1.297-4.79 0-11.265-11.27-22.546-22.55-33.816-33.816-2.066-2.07-.539-5.778 2.395-5.778h67.633c4.355 0 4.355 6.766 0 6.766H274.75c.8-1.922 1.598-3.855 2.395-5.777l33.816 33.816h-4.79c11.27-11.265 22.552-22.547 33.817-33.816 3.082-3.07 7.871 1.707 4.79 4.789m-.001-137.008-33.816 33.816c-1.285 1.286-3.488 1.301-4.79 0l-33.816-33.816c-2.066-2.066-.539-5.773 2.395-5.773h67.633c4.355 0 4.355 6.761 0 6.761H274.75c.8-1.922 1.598-3.855 2.395-5.773 11.27 11.265 22.55 22.547 33.816 33.812h-4.79c11.27-11.265 22.552-22.547 33.817-33.812 3.082-3.07 7.871 1.715 4.79 4.785m-.001-135.219a134769 134769 0 0 0-33.816 33.817c-1.285 1.28-3.488 1.297-4.79 0-11.265-11.27-22.546-22.551-33.816-33.817-2.066-2.07-.539-5.777 2.395-5.777h67.633c4.355 0 4.355 6.766 0 6.766H274.75c.8-1.922 1.598-3.856 2.395-5.778 11.27 11.266 22.55 22.547 33.816 33.817h-4.79l33.817-33.817c3.082-3.086 7.871 1.703 4.79 4.79m0 0"/><g clip-path="url(#T)"><path fill="#ffaba7" d="M480.04 414.367c-11.27 11.27-22.552 22.547-33.817 33.817-1.286 1.285-3.489 1.296-4.79 0-11.265-11.27-22.546-22.547-33.816-33.817-2.066-2.07-.539-5.773 2.395-5.773h67.633c4.355 0 4.355 6.761 0 6.761h-67.633c.8-1.921 1.597-3.855 2.394-5.777l33.817 33.817h-4.79c11.27-11.266 22.551-22.547 33.817-33.817 3.082-3.07 7.871 1.707 4.79 4.79m0 0"/></g><path fill="#ffaba7" d="M480.04 279.16c-11.27 11.266-22.552 22.547-33.817 33.817-1.286 1.285-3.489 1.296-4.79 0-11.265-11.27-22.546-22.551-33.816-33.817-2.066-2.07-.539-5.777 2.395-5.777h67.633c4.355 0 4.355 6.765 0 6.765h-67.633c.8-1.921 1.597-3.855 2.394-5.777l33.817 33.817h-4.79c11.27-11.266 22.551-22.547 33.817-33.817 3.082-3.082 7.871 1.703 4.79 4.79m0-137.009-33.817 33.817c-1.286 1.285-3.489 1.297-4.79 0l-33.816-33.817c-2.066-2.066-.539-5.773 2.395-5.773h67.633c4.355 0 4.355 6.762 0 6.762h-67.633c.8-1.922 1.597-3.856 2.394-5.774 11.27 11.266 22.551 22.547 33.817 33.813h-4.79c11.27-11.266 22.551-22.547 33.817-33.813 3.082-3.074 7.871 1.703 4.79 4.785m0-135.234-33.817 33.816c-1.286 1.286-3.489 1.297-4.79 0L407.618 6.918c-2.066-2.07-.539-5.773 2.395-5.773h67.633c4.355 0 4.355 6.761 0 6.761h-67.633c.8-1.922 1.597-3.855 2.394-5.777l33.817 33.816h-4.79a134769 134769 0 0 0 33.817-33.816c3.082-3.07 7.871 1.707 4.79 4.789m0 0"/><g clip-path="url(#U)"><path fill="#ffaba7" d="M615.313 414.367c-11.266 11.27-22.547 22.547-33.817 33.817-1.281 1.285-3.488 1.296-4.785 0-11.27-11.27-22.55-22.547-33.816-33.817-2.07-2.07-.543-5.773 2.394-5.773h67.629c4.355 0 4.355 6.761 0 6.761h-67.629c.797-1.921 1.594-3.855 2.395-5.777 11.265 11.27 22.546 22.55 33.812 33.817h-4.785c11.266-11.266 22.547-22.547 33.812-33.817 3.086-3.07 7.875 1.707 4.79 4.79m0 0"/></g><path fill="#ffaba7" d="m615.313 279.16-33.817 33.817c-1.281 1.285-3.488 1.296-4.785 0l-33.816-33.817c-2.07-2.07-.543-5.777 2.394-5.777h67.629c4.355 0 4.355 6.765 0 6.765h-67.629c.797-1.921 1.594-3.855 2.395-5.777 11.265 11.27 22.546 22.55 33.812 33.817h-4.785c11.266-11.266 22.547-22.547 33.812-33.817 3.086-3.082 7.875 1.703 4.79 4.79m0-137.009c-11.266 11.27-22.547 22.551-33.817 33.817-1.281 1.285-3.488 1.297-4.785 0a134769 134769 0 0 1-33.816-33.817c-2.07-2.066-.543-5.773 2.394-5.773h67.629c4.355 0 4.355 6.762 0 6.762h-67.629c.797-1.922 1.594-3.856 2.395-5.774l33.812 33.813h-4.785l33.812-33.813c3.086-3.074 7.875 1.703 4.79 4.785m0-135.234a134769 134769 0 0 1-33.817 33.816c-1.281 1.286-3.488 1.297-4.785 0-11.27-11.265-22.55-22.546-33.816-33.816-2.07-2.07-.543-5.773 2.394-5.773h67.629c4.355 0 4.355 6.761 0 6.761h-67.629c.797-1.922 1.594-3.855 2.395-5.777 11.265 11.27 22.546 22.55 33.812 33.816h-4.785c11.266-11.265 22.547-22.547 33.812-33.816 3.086-3.07 7.875 1.707 4.79 4.789m0 0"/></g></g></g></g><g mask="url(#V)"><g clip-path="url(#W)" transform="translate(2077)"><g clip-path="url(#X)"><path fill="#122f60" d="M941.934-123.191c63.91-68.524 85.21-138.114 86.277-141.309l1.066-3.55-98.703-29.47-3.55-1.062-1.067 3.55c0 .356-15.621 49.348-62.133 99.055-14.199 15.27-29.82 28.758-46.508 40.832l-65.328-12.78-3.55-.712-.711 3.551c-4.618 18.816-11.36 36.922-20.239 53.965-41.183 12.426-83.789 18.46-126.75 17.754-258.824.707-322.734-193.5-325.574-201.664l-1.062-3.551-50.774 15.621-50.77 15.266 1.063 3.55c.711 2.485 17.043 55.032 62.488 113.614l-16.687 3.906-52.192 11.363.711 3.547c.711 2.844 17.043 74.207 75.625 146.988a374 374 0 0 0 35.86 39.055C149.48 11.723 102.613-93.012 100.129-99.05l-1.418-3.195-48.645 20.238L.72-61.414l1.418 3.195c1.066 2.84 29.468 70.297 99.77 131.719 56.804 49.707 151.956 104.738 293.972 104.738 19.883 0 39.41-1.062 59.293-3.195 18.105-1.773 35.148-4.258 51.836-7.457 22.012 4.262 44.379 7.101 67.101 8.879 14.914 1.062 29.114 1.418 42.961 1.418 151.25 0 249.95-60.356 307.114-113.613 68.523-63.551 95.152-131.72 96.214-134.56l1.422-3.194-93.73-35.508c4.969-4.969 9.586-9.586 13.844-14.2m-72.782-67.813c26.98-28.406 48.285-61.777 62.489-98.348l88.402 26.274c-18.461 50.058-46.863 96.215-83.434 134.914-36.57 39.055-80.238 70.3-128.879 92.668 34.438-58.227 44.024-106.512 44.735-109l.71-3.55-25.917-4.614c14.91-11.719 29.113-24.5 41.894-38.344M581.566 70.305c-19.882-1.418-39.41-4.258-58.937-8.164 38.344-10.297 74.558-26.63 107.223-48.996 54.675-2.13 108.644-13.493 159.77-33.02-4.614 6.746-9.231 13.492-14.556 20.238-15.976 21.301-34.086 40.473-53.968 58.227q-63.373 17.04-139.532 11.715m127.106-1.418c-47.574 39.054-113.258 74.203-201.664 91.601-88.051-17.043-152.668-52.547-199.89-91.246 45.093 9.942 91.956 12.426 137.757 7.102 20.95-2.133 41.54-5.328 61.777-10.297 24.5 5.68 48.996 9.586 74.203 11.004 42.961 3.55 85.922.71 127.817-8.164M507.008 58.59C397.656 31.96 337.297-30.527 304.988-81.297c63.2 49.707 157.996 95.152 295.75 95.152 4.973 0 10.297 0 15.27-.355-33.375 20.945-70.301 36.215-109 45.09M640.504 5.332a310.8 310.8 0 0 0 61.066-61.066C713.29-71 723.582-87.687 732.46-104.73c30.888-9.942 60-24.141 86.63-42.606l25.562 4.973c-9.941 39.765-26.273 77.398-47.93 111.836C746.66-9.934 694.118 2.137 640.505 5.332m113.258-165.094 55.386 10.653c-22.367 14.91-46.863 26.629-72.43 35.504 7.102-14.915 12.786-30.536 17.044-46.157M181.434-263.078l44.027-13.137 44.379-13.492c9.586 27.691 82.015 204.148 330.898 204.148 41.188.356 82.371-4.968 122.137-16.332-7.812 14.559-16.687 28.758-26.984 41.895-19.172 25.566-42.606 47.934-68.88 66.039-8.519.355-17.394.71-26.628.71-146.985 0-244.621-52.546-306.047-105.804-9.941-17.75-17.395-36.566-22.723-56.094l-.707-3.55-27.34 6.39c-26.629-33.375-47.574-70.656-62.132-110.773m98.703 150.539c-5.328-5.328-10.653-10.297-15.27-15.625-5.68-6.035-11.004-12.426-15.976-18.461l17.043-3.906c3.55 13.136 8.523 25.918 14.203 37.992m-30.89 123.2c-33.727-41.544-58.938-89.118-73.493-140.598l45.09-9.942 20.238-4.617c5.68 7.101 12.07 14.203 18.461 21.305 9.23 9.941 19.172 19.527 29.469 28.757 28.402 52.192 87.34 124.266 202.73 156.575-15.27 3.195-30.89 5.68-47.222 7.101-58.582 6.035-107.934 1.063-149.473-10.652-16.332-14.91-31.953-30.89-45.8-47.93M454.46 168.296c-172.905 17.399-284.741-44.733-347.94-100.12C66.398 33.027 33.383-9.578 9.95-57.864l42.605-17.753 42.605-17.75c9.586 20.234 63.55 121.422 196.692 158.703 45.445 40.121 109.355 78.465 196.695 98.703a4462 4462 0 0 1-34.086 4.258M919.566 59.3C857.79 116.46 748.082 182.145 574.82 169.363c-17.043-1.422-33.375-3.195-48.996-5.68 88.051-20.238 152.668-58.226 198.824-98.703C774 51.488 819.445 26.281 856.727-8.512c29.113-26.629 52.543-58.23 69.23-93.734l86.277 33.02c-21.66 48.64-53.257 92.312-92.668 128.527M852.11-13.84c-33.02 30.534-72.43 53.612-115.035 67.456 15.977-15.265 30.89-31.597 44.028-49.347 7.457-9.942 14.199-19.528 20.238-29.114 41.894-17.754 80.95-42.605 115.031-73.14-16.687 31.597-38.344 60.004-64.262 84.144m0 0"/></g></g></g></svg>